<?xml version="1.0" encoding="UTF-8" standalone="no"?>
<svg
   xmlns:dc="http://purl.org/dc/elements/1.1/"
   xmlns:cc="http://creativecommons.org/ns#"
   xmlns:rdf="http://www.w3.org/1999/02/22-rdf-syntax-ns#"
   xmlns:svg="http://www.w3.org/2000/svg"
   xmlns="http://www.w3.org/2000/svg"
   xmlns:sodipodi="http://sodipodi.sourceforge.net/DTD/sodipodi-0.dtd"
   xmlns:inkscape="http://www.inkscape.org/namespaces/inkscape"
   id="svg7384"
   height="36"
   width="36"
   version="1.1"
   inkscape:version="1.0.1 (3bc2e81, 2020-09-07)"
   sodipodi:docname="applications.svg">
  <defs
     id="defs10" />
  <sodipodi:namedview
     pagecolor="#ffffff"
     bordercolor="#666666"
     borderopacity="1"
     objecttolerance="10000"
     gridtolerance="10"
     guidetolerance="10"
     inkscape:pageopacity="0"
     inkscape:pageshadow="2"
     inkscape:window-width="1920"
     inkscape:window-height="1026"
     id="namedview8"
     showgrid="false"
     inkscape:zoom="8"
     inkscape:cx="20.450868"
     inkscape:cy="24.628648"
     inkscape:window-x="0"
     inkscape:window-y="28"
     inkscape:window-maximized="1"
     inkscape:current-layer="svg7384"
     showguides="false"
     inkscape:snap-path-clip="true"
     inkscape:snap-tangential="true"
     inkscape:document-rotation="0" />
  <metadata
     id="metadata90">
    <rdf:RDF>
      <cc:Work
         rdf:about="">
        <dc:format>image/svg+xml</dc:format>
        <dc:type
           rdf:resource="http://purl.org/dc/dcmitype/StillImage" />
        <dc:title>Gnome Symbolic Icon Theme</dc:title>
      </cc:Work>
    </rdf:RDF>
  </metadata>
  <title
     id="title9167">Gnome Symbolic Icon Theme</title>
  <path
     style="opacity:1;fill:#2eaffa;fill-opacity:1;stroke:none"
     d="m 18.199905,1.4396145 c -0.21508,0.016646 -0.429657,0.081702 -0.628135,0.1962922 L 16.472533,2.264042 c -0.70571,0.4074399 -0.937429,1.2964712 -0.529989,2.0021812 L 25.482348,20.794083 28.97635,18.458173 19.573951,2.1855251 C 19.319298,1.7444548 18.886476,1.4725162 18.415826,1.4396145 c -0.0706,-0.00503 -0.144226,-0.00565 -0.215921,0 z m -3.376227,5.6335883 c -0.470649,0.03291 -0.923101,0.285211 -1.177754,0.726281 l -0.961832,1.6488552 3.631407,2.100328 0.961832,-1.648855 c 0.40744,-0.70571 0.175721,-1.5947412 -0.529989,-2.0021812 l -1.079607,-0.628136 c -0.26464,-0.152794 -0.561666,-0.216035 -0.844057,-0.196292 z M 12.075586,10.527947 3.850941,24.798445 7.482348,26.879143 15.706993,12.628274 Z M 0.0625,16.927094 v 4.200654 h 4.868284 l 2.414395,-4.200654 z m 14.211638,0 -2.414395,4.200654 H 24.638134 L 22.20411,16.927094 Z m 14.858932,0 2.434024,4.200654 H 36.0625 v -4.200654 z m 0.471416,2.610718 -3.494003,2.335847 1.747002,3.022901 3.494002,-2.335847 z m 2.375136,4.122138 -3.494002,2.335846 c 0.104094,4.176472 3.293583,3.656438 4.514722,6.261755 2.325217,-2.475418 1.62212,-6.281918 -1.02072,-8.597601 z M 3.222805,25.878021 1.31877,32.689394 6.854212,27.97838 Z"
     id="rect3081"
     inkscape:connector-curvature="0"
     sodipodi:nodetypes="cccccccccccccccccccccccccccccccccccccccccccccccccc" />
  <path
     style="fill:#135add;stroke-width:0.125;fill-opacity:1"
     d="M 5.6708256,25.773336 C 4.7605524,25.246882 4.0152399,24.779623 4.0145757,24.734982 c -8.822e-4,-0.05929 7.9038233,-13.86174 8.0622153,-14.07748 0.01359,-0.01851 0.815309,0.422556 1.781606,0.980136 l 1.756903,1.013782 -1.563939,2.707364 c -0.860166,1.48905 -2.691162,4.662052 -4.0688803,7.051114 -1.3777181,2.389063 -2.539068,4.338546 -2.5807773,4.332188 -0.041709,-0.0064 -0.8206044,-0.442298 -1.7308778,-0.96875 z"
     id="path82" />
  <path
     style="fill:#135add;fill-opacity:1;stroke-width:0.125"
     d="m 5.6668131,25.686587 -1.5965548,-0.941349 0.302442,-0.527045 c 0.1663431,-0.289875 1.3282603,-2.327045 2.5820382,-4.527045 1.2537779,-2.2 2.9246492,-5.112955 3.7130475,-6.473233 l 1.433451,-2.473233 1.018566,0.551313 c 0.560211,0.303222 1.33094,0.741177 1.712732,0.973233 l 0.694168,0.42192 -3.256668,5.633008 c -4.1158071,7.11905 -4.8185761,8.304577 -4.9226093,8.304136 -0.046232,-2.5e-4 -0.8025073,-0.423964 -1.6806126,-0.941705 z"
     id="path907" />
  <path
     style="fill:#135add;fill-opacity:1;stroke-width:0.125"
     d="m 12.249412,20.597398 c 0.169996,-0.292187 0.695346,-1.20625 1.167445,-2.03125 l 0.858362,-1.5 h 3.967107 3.967106 l 1.176026,2.03125 1.176025,2.03125 H 18.250906 11.94033 Z"
     id="path909" />
  <path
     style="fill:#135add;fill-opacity:1;stroke-width:0.125"
     d="M 14.513368,10.427452 C 13.619618,9.906333 12.86679,9.4590267 12.840417,9.4334379 c -0.07615,-0.073889 0.933787,-1.7192877 1.207128,-1.9666575 0.480155,-0.4345351 1.058928,-0.4124863 1.926815,0.073403 1.580937,0.8850929 1.751979,1.4277808 0.911062,2.8906396 -0.27338,0.475571 -0.553304,0.88255 -0.622054,0.904396 -0.06875,0.02185 -0.85625,-0.386649 -1.75,-0.907767 z"
     id="path911" />
  <path
     style="fill:#135add;fill-opacity:1;stroke-width:0.125"
     d="M 22.854406,16.097398 C 16.225491,4.6260563 15.825868,3.9144558 15.825868,3.5818193 c 0,-0.5952315 0.342732,-1.0472434 1.156413,-1.5251337 0.959983,-0.5638164 1.519716,-0.6535919 2.031087,-0.3257653 0.281635,0.1805491 1.554037,2.284909 5.110621,8.4521937 2.628218,4.557454 4.686394,8.256593 4.625,8.312465 -0.168477,0.153328 -3.15789,2.133069 -3.220937,2.133069 -0.03035,0 -1.233491,-2.039062 -2.673646,-4.53125 z"
     id="path913" />
  <path
     style="fill:#135add;fill-opacity:1;stroke-width:0.125"
     d="m 27.258945,23.722398 c -0.323841,-0.567187 -0.694463,-1.206759 -0.823604,-1.421269 l -0.2348,-0.390019 1.67952,-1.142678 1.67952,-1.142677 0.677854,1.157696 c 0.937287,1.600781 1.001002,1.733989 0.881263,1.842419 -0.166644,0.150905 -3.154287,2.127778 -3.215706,2.127778 -0.03038,0 -0.320205,-0.464062 -0.644047,-1.03125 z"
     id="path915" />
  <path
     style="fill:#135add;fill-opacity:1;stroke-width:0.125"
     d="m 32.955027,32.052497 c -0.0084,-0.2812 -1.048302,-1.312738 -1.998042,-1.982038 -1.586704,-1.118181 -2.2034,-2.006019 -2.344762,-3.37568 l -0.06864,-0.665101 1.729199,-1.157328 1.729199,-1.157328 0.59819,0.675563 c 0.703356,0.794332 1.406533,2.149264 1.610711,3.103635 0.228747,1.069214 0.09426,2.338063 -0.346945,3.273364 -0.37949,0.804471 -0.901195,1.542001 -0.908906,1.284913 z"
     id="path917" />
  <path
     style="fill:#135add;fill-opacity:1;stroke-width:0.125"
     d="m 30.513368,19.179994 c -0.61875,-1.06907 -1.14375,-1.996095 -1.166667,-2.060055 -0.02503,-0.06985 1.285345,-0.116291 3.28125,-0.116291 h 3.322917 v 2.0625 2.0625 l -2.15625,-0.0024 -2.15625,-0.0024 z"
     id="path919" />
  <path
     style="fill:#135add;fill-opacity:1;stroke-width:0.125"
     d="m 0.075868,19.068847 v -2.065199 h 3.5716739 3.5716737 l -0.4089989,0.71875 c -0.2249495,0.395313 -0.7505052,1.309375 -1.1679016,2.03125 l -0.7589026,1.3125 -2.4037723,0.03395 -2.4037722,0.03395 z"
     id="path921" />
  <path
     style="fill:#135add;fill-opacity:1;stroke-width:0.125"
     d=""
     id="path923" />
  <path
     style="fill:#135add;fill-opacity:1;stroke-width:0.125"
     d="m 1.707818,31.543161 c 0.1342167,-0.468607 0.5347924,-1.908144 0.8901684,-3.19897 0.3553758,-1.290827 0.6825032,-2.331452 0.7269498,-2.3125 0.3241585,0.138217 3.3674775,1.922569 3.363291,1.971957 -0.0061,0.07191 -4.9769426,4.292262 -5.1259213,4.352013 -0.054185,0.02173 0.011295,-0.343892 0.1455121,-0.8125 z"
     id="path925" />
</svg>
