<?xml version="1.0" encoding="UTF-8"?>
<svg xmlns="http://www.w3.org/2000/svg" xmlns:xlink="http://www.w3.org/1999/xlink" width="29pt" height="29pt" viewBox="0 0 29 29" version="1.1">
<g id="surface1">
<path style=" stroke:none;fill-rule:nonzero;fill:rgb(0%,0%,0%);fill-opacity:1;" d="M 26.707031 25.292969 L 19.738281 18.324219 C 23.117188 14.191406 22.660156 8.136719 18.703125 4.558594 C 14.746094 0.976562 8.675781 1.128906 4.902344 4.902344 C 1.128906 8.675781 0.976562 14.746094 4.558594 18.703125 C 8.136719 22.660156 14.191406 23.117188 18.324219 19.738281 L 25.292969 26.707031 C 25.683594 27.089844 26.3125 27.089844 26.699219 26.699219 C 27.089844 26.3125 27.089844 25.683594 26.707031 25.292969 Z M 4 12 C 3.996094 8.378906 6.425781 5.207031 9.925781 4.269531 C 13.421875 3.328125 17.113281 4.855469 18.925781 7.992188 C 20.738281 11.125 20.21875 15.085938 17.660156 17.648438 L 17.652344 17.652344 L 17.648438 17.660156 C 15.359375 19.945312 11.921875 20.628906 8.933594 19.390625 C 5.945312 18.152344 4 15.234375 4 12 Z M 4 12 "/>
</g>
</svg>
