<?xml version="1.0" encoding="UTF-8" standalone="no"?>
<svg
   xmlns:dc="http://purl.org/dc/elements/1.1/"
   xmlns:cc="http://creativecommons.org/ns#"
   xmlns:rdf="http://www.w3.org/1999/02/22-rdf-syntax-ns#"
   xmlns:svg="http://www.w3.org/2000/svg"
   xmlns="http://www.w3.org/2000/svg"
   xmlns:sodipodi="http://sodipodi.sourceforge.net/DTD/sodipodi-0.dtd"
   xmlns:inkscape="http://www.inkscape.org/namespaces/inkscape"
   width="210mm"
   height="297mm"
   viewBox="0 0 210 297"
   version="1.1"
   id="svg8"
   inkscape:version="1.0.1 (3bc2e81, 2020-09-07)"
   sodipodi:docname="drawing.svg">
  <defs
     id="defs2" />
  <sodipodi:namedview
     id="base"
     pagecolor="#ffffff"
     bordercolor="#666666"
     borderopacity="1.0"
     inkscape:pageopacity="0.0"
     inkscape:pageshadow="2"
     inkscape:zoom="0.058396845"
     inkscape:cx="864.2987"
     inkscape:cy="1701.2658"
     inkscape:document-units="mm"
     inkscape:current-layer="layer1"
     inkscape:document-rotation="0"
     showgrid="false"
     inkscape:window-width="1920"
     inkscape:window-height="1027"
     inkscape:window-x="0"
     inkscape:window-y="24"
     inkscape:window-maximized="1" />
  <metadata
     id="metadata5">
    <rdf:RDF>
      <cc:Work
         rdf:about="">
        <dc:format>image/svg+xml</dc:format>
        <dc:type
           rdf:resource="http://purl.org/dc/dcmitype/StillImage" />
        <dc:title></dc:title>
      </cc:Work>
    </rdf:RDF>
  </metadata>
  <g
     inkscape:label="Layer 1"
     inkscape:groupmode="layer"
     id="layer1">
    <path
       style="fill:#ffffff;fill-opacity:1;fill-rule:nonzero;stroke:none;stroke-width:0.10692"
       d="M 115.05853,51.225373 C 138.51338,46.371337 153.51568,27.153178 153.58167,3.2681297 131.52762,3.4507115 108.79529,28.444163 115.05853,51.225373 M 201.5385,215.53687 c -39.80579,0 -69.8789,-36.76942 -59.83129,-76.25946 2.128,-8.36569 6.60696,-15.97919 11.7951,-22.79916 2.48425,-3.26565 7.43475,-6.63867 7.69119,-11.00654 C 162.1161,89.776511 148.102,74.862345 135.49955,67.98016 111.54601,54.901172 74.861377,62.039804 62.479048,88.175626 56.9597,99.826204 60.324768,112.53141 56.052542,124.33985 c -6.128303,16.94066 -18.435037,28.02742 -27.138203,43.24019 -11.941278,20.87459 -14.777604,50.19673 -4.807256,72.32848 28.779604,63.88754 125.318037,71.23373 164.324867,13.36506 7.51994,-11.1565 13.06896,-24.10808 13.10655,-37.73671 z m 0,0"
       id="path12" />
  </g>
</svg>
