<?xml version="1.0" encoding="UTF-8"?>
<svg xmlns="http://www.w3.org/2000/svg" xmlns:xlink="http://www.w3.org/1999/xlink" width="29pt" height="29pt" viewBox="0 0 29 29" version="1.1">
<g id="surface1">
<path style=" stroke:none;fill-rule:nonzero;fill:rgb(0%,0%,0%);fill-opacity:1;" d="M 7.5 13 L 21.5 13 C 24.539062 13 27 10.539062 27 7.5 C 27 4.460938 24.539062 2 21.5 2 L 7.5 2 C 4.460938 2 2 4.460938 2 7.5 C 2 10.539062 4.460938 13 7.5 13 Z M 7.5 4 L 21.5 4 C 23.433594 4 25 5.566406 25 7.5 C 25 9.433594 23.433594 11 21.5 11 L 7.5 11 C 5.566406 11 4 9.433594 4 7.5 C 4 5.566406 5.566406 4 7.5 4 Z M 7.5 10 C 8.878906 10 10 8.878906 10 7.5 C 10 6.121094 8.878906 5 7.5 5 C 6.121094 5 5 6.121094 5 7.5 C 5 8.878906 6.121094 10 7.5 10 Z M 21.5 16 L 7.5 16 C 4.460938 16 2 18.460938 2 21.5 C 2 24.539062 4.460938 27 7.5 27 L 21.5 27 C 24.539062 27 27 24.539062 27 21.5 C 27 18.460938 24.539062 16 21.5 16 Z M 22.933594 24 C 21.554688 24 20.433594 22.878906 20.433594 21.5 C 20.433594 20.121094 21.554688 19 22.933594 19 C 24.316406 19 25.433594 20.121094 25.433594 21.5 C 25.433594 22.878906 24.316406 24 22.933594 24 Z M 22.933594 24 "/>
</g>
</svg>
