<?xml version="1.0" encoding="UTF-8" standalone="no"?>
<svg
   xmlns:dc="http://purl.org/dc/elements/1.1/"
   xmlns:cc="http://creativecommons.org/ns#"
   xmlns:rdf="http://www.w3.org/1999/02/22-rdf-syntax-ns#"
   xmlns:svg="http://www.w3.org/2000/svg"
   xmlns="http://www.w3.org/2000/svg"
   xmlns:sodipodi="http://sodipodi.sourceforge.net/DTD/sodipodi-0.dtd"
   xmlns:inkscape="http://www.inkscape.org/namespaces/inkscape"
   inkscape:version="1.0 (4035a4fb49, 2020-05-01)"
   sodipodi:docname="sideBar-controlCentre-white.svg"
   id="svg5"
   version="1.1"
   viewBox="0 0 29 29"
   height="29pt"
   width="29pt">
  <metadata
     id="metadata11">
    <rdf:RDF>
      <cc:Work
         rdf:about="">
        <dc:format>image/svg+xml</dc:format>
        <dc:type
           rdf:resource="http://purl.org/dc/dcmitype/StillImage" />
        <dc:title></dc:title>
      </cc:Work>
    </rdf:RDF>
  </metadata>
  <defs
     id="defs9" />
  <sodipodi:namedview
     inkscape:current-layer="svg5"
     inkscape:window-maximized="0"
     inkscape:window-y="57"
     inkscape:window-x="157"
     inkscape:cy="19.333333"
     inkscape:cx="19.333333"
     inkscape:zoom="13.862069"
     showgrid="false"
     id="namedview7"
     inkscape:window-height="713"
     inkscape:window-width="1253"
     inkscape:pageshadow="2"
     inkscape:pageopacity="0"
     guidetolerance="10"
     gridtolerance="10"
     objecttolerance="10"
     borderopacity="1"
     bordercolor="#666666"
     pagecolor="#ffffff" />
  <g
     style="fill:#ffffff"
     id="surface1">
    <path
       id="path2"
       d="M 7.5 13 L 21.5 13 C 24.539062 13 27 10.539062 27 7.5 C 27 4.460938 24.539062 2 21.5 2 L 7.5 2 C 4.460938 2 2 4.460938 2 7.5 C 2 10.539062 4.460938 13 7.5 13 Z M 7.5 4 L 21.5 4 C 23.433594 4 25 5.566406 25 7.5 C 25 9.433594 23.433594 11 21.5 11 L 7.5 11 C 5.566406 11 4 9.433594 4 7.5 C 4 5.566406 5.566406 4 7.5 4 Z M 7.5 10 C 8.878906 10 10 8.878906 10 7.5 C 10 6.121094 8.878906 5 7.5 5 C 6.121094 5 5 6.121094 5 7.5 C 5 8.878906 6.121094 10 7.5 10 Z M 21.5 16 L 7.5 16 C 4.460938 16 2 18.460938 2 21.5 C 2 24.539062 4.460938 27 7.5 27 L 21.5 27 C 24.539062 27 27 24.539062 27 21.5 C 27 18.460938 24.539062 16 21.5 16 Z M 22.933594 24 C 21.554688 24 20.433594 22.878906 20.433594 21.5 C 20.433594 20.121094 21.554688 19 22.933594 19 C 24.316406 19 25.433594 20.121094 25.433594 21.5 C 25.433594 22.878906 24.316406 24 22.933594 24 Z M 22.933594 24 "
       style="stroke:none;fill-rule:nonzero;fill:#ffffff;fill-opacity:1" />
  </g>
</svg>
