<?xml version="1.0" encoding="UTF-8"?>
<svg xmlns="http://www.w3.org/2000/svg" xmlns:xlink="http://www.w3.org/1999/xlink" width="9000pt" height="6000pt" viewBox="0 0 9000 6000" version="1.1">
<g id="surface1">
<path style=" stroke:none;fill-rule:nonzero;fill:rgb(0%,0%,0%);fill-opacity:1;" d="M 7.351562 7.351562 L 7.351562 5992.648438 L 8992.648438 5992.648438 L 8992.648438 7.351562 Z M 7.351562 7.351562 "/>
<path style=" stroke:none;fill-rule:nonzero;fill:rgb(100%,100%,100%);fill-opacity:1;" d="M 4632.351562 2198.53125 C 4851.71875 2153.132812 4992.03125 1973.390625 4992.648438 1750 C 4786.382812 1751.707031 4573.773438 1985.464844 4632.351562 2198.53125 M 5441.175781 3735.292969 C 5068.882812 3735.292969 4787.617188 3391.398438 4881.589844 3022.058594 C 4901.492188 2943.816406 4943.382812 2872.609375 4991.90625 2808.824219 C 5015.140625 2778.28125 5061.441406 2746.734375 5063.839844 2705.882812 C 5072.46875 2559.089844 4941.398438 2419.601562 4823.53125 2355.234375 C 4599.5 2232.910156 4256.398438 2299.675781 4140.589844 2544.117188 C 4088.96875 2653.082031 4120.441406 2771.910156 4080.484375 2882.351562 C 4023.167969 3040.792969 3908.066406 3144.484375 3826.667969 3286.765625 C 3714.984375 3482 3688.457031 3756.242188 3781.707031 3963.234375 C 4050.875 4560.757812 4953.773438 4629.464844 5318.59375 4088.234375 C 5388.925781 3983.890625 5440.824219 3862.757812 5441.175781 3735.292969 Z M 5441.175781 3735.292969 "/>
</g>
</svg>
